<?xml version="1.0" encoding="utf-8"?>
<!-- Generator: Adobe Illustrator 16.0.3, SVG Export Plug-In . SVG Version: 6.00 Build 0)  -->
<!DOCTYPE svg PUBLIC "-//W3C//DTD SVG 1.1//EN" "http://www.w3.org/Graphics/SVG/1.1/DTD/svg11.dtd">
<svg version="1.1" id="レイヤー_1" xmlns="http://www.w3.org/2000/svg" xmlns:xlink="http://www.w3.org/1999/xlink" x="0px"
	 y="0px" width="504.979px" height="269.902px" viewBox="0 0 504.979 269.902" enable-background="new 0 0 504.979 269.902"
	 xml:space="preserve">
<g>
	<path d="M149.447,167.711h2.189c1.729,0,3.016,0.465,3.864,1.378c0.842,0.919,1.271,1.973,1.271,3.141
		c0,1.199-0.435,2.235-1.298,3.15c-0.886,0.908-2.157,1.373-3.822,1.373h-2.204V167.711L149.447,167.711z M150.684,168.924v6.608
		h0.064c0.923,0,1.608-0.048,2.065-0.122c0.459-0.088,0.914-0.266,1.315-0.537c0.427-0.282,0.743-0.663,0.994-1.112
		c0.255-0.457,0.377-0.968,0.377-1.531c0-0.688-0.194-1.316-0.596-1.879c-0.388-0.562-0.86-0.939-1.397-1.136
		c-0.557-0.192-1.284-0.291-2.205-0.291H150.684z"/>
	<path d="M163.98,167.711h1.223v9.042h-1.223V167.711z"/>
	<path d="M181.727,169.162l-0.915,0.908c-0.915-0.908-1.991-1.355-3.194-1.355c-1.061,0-1.94,0.337-2.647,1.021
		c-0.705,0.684-1.053,1.527-1.053,2.549c0,0.896,0.336,1.692,1.021,2.411c0.681,0.716,1.624,1.075,2.817,1.075
		c1.81,0,2.945-0.783,3.398-2.342h-2.438v-1.244h3.846c0,0.619-0.032,1.119-0.117,1.481c-0.08,0.371-0.259,0.774-0.514,1.211
		c-0.264,0.451-0.609,0.847-1.036,1.198c-0.43,0.354-0.894,0.604-1.39,0.759c-0.488,0.142-1.082,0.22-1.785,0.22
		c-1.551,0-2.799-0.488-3.715-1.469c-0.933-0.972-1.397-2.103-1.397-3.358c0-1.321,0.479-2.458,1.421-3.393
		c0.958-0.926,2.113-1.401,3.451-1.401c0.813,0,1.547,0.128,2.211,0.365C180.354,168.045,181.033,168.494,181.727,169.162z"/>
	<path d="M189.981,167.711h1.214v9.042h-1.214V167.711z"/>
	<path d="M206.44,167.35l2.489,9.402h-1.224l-1.489-5.749l-2.586,6.095l-2.574-6.148l-1.518,5.804h-1.203l2.471-9.402l2.824,6.722
		L206.44,167.35z"/>
	<path d="M215.61,172.18c0-1.312,0.497-2.42,1.471-3.347c0.994-0.938,2.175-1.401,3.559-1.401c1.348,0,2.51,0.477,3.484,1.401
		c0.967,0.953,1.457,2.058,1.457,3.347c0,1.36-0.478,2.518-1.439,3.463c-0.975,0.939-2.152,1.41-3.549,1.41
		c-1.371,0-2.555-0.472-3.521-1.42C216.102,174.68,215.61,173.534,215.61,172.18z M224.273,172.24c0-0.999-0.371-1.838-1.09-2.523
		c-0.712-0.676-1.598-1.02-2.652-1.02c-0.985,0-1.848,0.344-2.557,1.045c-0.709,0.7-1.074,1.521-1.074,2.498
		c0,0.982,0.373,1.826,1.099,2.497c0.729,0.692,1.628,1.032,2.688,1.032c0.979,0,1.81-0.354,2.52-1.047
		C223.912,174.025,224.273,173.192,224.273,172.24z"/>
	<path d="M232.924,167.357l6.678,6.862v-6.51h1.232v9.457l-6.676-6.828v6.413h-1.234V167.357z"/>
	<path d="M261.675,167.371l4.267,9.382h-1.297l-1.049-2.313h-3.828l-1.035,2.313h-1.282L261.675,167.371z M261.672,170.188
		l-1.447,3.219h2.907L261.672,170.188z"/>
	<path d="M273.428,167.711h2.195c1.722,0,3.013,0.465,3.869,1.378c0.852,0.919,1.268,1.973,1.268,3.141
		c0,1.199-0.428,2.235-1.316,3.15c-0.873,0.908-2.134,1.373-3.809,1.373h-2.207V167.711z M274.668,168.924v6.608h0.059
		c0.928,0,1.613-0.048,2.076-0.122c0.46-0.088,0.895-0.266,1.322-0.537c0.414-0.282,0.747-0.663,0.979-1.112
		c0.25-0.457,0.388-0.968,0.388-1.531c0-0.688-0.193-1.316-0.601-1.879c-0.396-0.562-0.865-0.939-1.412-1.136
		c-0.534-0.192-1.271-0.291-2.188-0.291H274.668z"/>
	<path d="M286.702,167.732h1.313l2.833,6.396l2.863-6.396h1.311l-4.19,9.32L286.702,167.732z"/>
	<path d="M301.938,167.711h5.009v1.242h-3.794v2.256h3.794v1.217h-3.794v3.106h3.794v1.221h-5.009V167.711z"/>
	<path d="M314.131,167.357l6.689,6.862v-6.51h1.227v9.457l-6.678-6.828v6.413h-1.238V167.357z"/>
	<path d="M329.141,167.711h5.529v1.242h-2.156v7.8h-1.229v-7.8h-2.146L329.141,167.711L329.141,167.711z"/>
	<path d="M341.818,167.732h1.244v5.553c0,0.823,0.192,1.452,0.588,1.908c0.396,0.449,0.949,0.664,1.672,0.664
		c0.72,0,1.288-0.197,1.678-0.618c0.396-0.409,0.599-0.989,0.599-1.741v-5.766h1.24v5.674c0,1.114-0.314,1.998-0.947,2.66
		c-0.635,0.657-1.479,0.986-2.521,0.986c-1.064,0-1.941-0.341-2.572-1.004c-0.645-0.681-0.979-1.665-0.979-2.974L341.818,167.732
		L341.818,167.732z"/>
	<path d="M356.63,167.711h1.96c0.981,0,1.764,0.25,2.373,0.738c0.631,0.479,0.928,1.098,0.928,1.854
		c0,0.609-0.188,1.144-0.595,1.611c-0.401,0.461-1.018,0.783-1.853,0.973l2.626,3.866h-1.42l-2.508-3.72h-0.273v3.72h-1.238V167.711
		z M357.868,168.808v3.161c1.817,0.025,2.732-0.5,2.732-1.595c0-0.385-0.104-0.694-0.322-0.94c-0.217-0.239-0.5-0.41-0.854-0.492
		C359.081,168.853,358.549,168.808,357.868,168.808z"/>
	<path d="M369.4,167.711h5.019v1.242h-3.789v2.256h3.789v1.217h-3.789v3.106h3.789v1.221H369.4V167.711z"/>
	<path d="M238.258,236.822h3.879v-25.699h8.78v-3.627h-8.78v-13.217h-3.879v13.217h-8.787v3.627h8.787V236.822z M283.719,200.817
		c1.986,0,3.529-1.552,3.529-3.546c0-1.886-1.543-3.53-3.529-3.53c-1.979,0-3.547,1.646-3.547,3.53
		C280.172,199.266,281.739,200.817,283.719,200.817z M281.739,236.822h3.872v-29.326h-3.872V236.822z M301.305,233.285
		c0-1.977-1.555-3.531-3.531-3.531c-1.979,0-3.539,1.556-3.539,3.531c0,1.986,1.561,3.537,3.539,3.537
		C299.75,236.822,301.305,235.271,301.305,233.285z M264.006,217.77c0.146-3.312,2.877-5.955,6.223-5.961h1.006v-3.845h-1.006l0,0
		c-2.354,0-4.508,0.807-6.223,2.157v-2.626h-3.882v29.326h3.882V217.77z M294.391,222.186v3.631h46.959l-79.418,40.022
		l-79.422-40.022h46.961v-3.631h-62.225l94.686,47.717l94.684-47.717H294.391L294.391,222.186z"/>
	<g>
		<path d="M366.764,13.415c-4.939,0.693-10.009,1.341-15.203,1.943l-1.048,6.273c15.698-1.765,30.384-3.987,43.763-6.602
			l1.709-6.581C386.857,10.297,377.089,11.953,366.764,13.415z"/>
		<path d="M113.122,5.164C106.511,3.545,100.341,1.816,94.688,0l2.261,7.109c13.102,3.951,28.432,7.393,45.521,10.24l-1.449-6.445
			C131.041,9.188,121.703,7.264,113.122,5.164z"/>
		<g>
			<path d="M420.262,132.675l-1.827,5.038l31.655,2.759l-18.294,8.903l10.448-24.318c-2.297-0.143-4.177-0.273-6.204-0.396
				l-15.778,36.705l49.131-24.354L420.262,132.675z"/>
			<path d="M420.459,2.611l-19.732,65.74c-18.493,1.668-38.117,3.014-58.631,3.995l-1.03,6.183
				c22.614-1.07,44.161-2.572,64.339-4.462l0,0l22.078-73.535C425.217,1.25,422.87,1.938,420.459,2.611z"/>
			<path d="M339.938,22.73l0.978-6.244c-22.985,2.282-48.01,3.598-74.212,3.739l-0.029,6.13c4.906-0.035,9.76-0.094,14.578-0.207
				l-0.474,11.256c-4.688,0.088-9.405,0.154-14.169,0.178l-0.029,6.115c4.68-0.023,9.323-0.08,13.938-0.163L278.93,80.26v0.005
				V80.26c17.863-0.176,35.309-0.614,52.197-1.299l0.979-6.164c-15.169,0.627-30.788,1.054-46.754,1.263l1.306-30.663
				c17.515-0.462,34.408-1.392,50.472-2.747l0.982-6.229c-16.247,1.404-33.394,2.377-51.201,2.834l0.483-11.264
				C305.721,25.449,323.336,24.34,339.938,22.73z"/>
			<path d="M257.232,33.33l1.043,0.012l-0.16-13.129l-6.117-0.026l0.152,13.098C253.834,33.299,255.538,33.32,257.232,33.33z"/>
			<path d="M235.888,19.857l0.571,13.139c2.035,0.056,4.082,0.104,6.132,0.149l-0.581-13.124
				C239.959,19.975,237.918,19.922,235.888,19.857z"/>
			<path d="M258.333,37.59l-6.146-0.104l0.436,36.706c-20.896-0.099-41.257-0.587-60.853-1.396l0.96,6.164
				c21.26,0.859,43.372,1.34,66.108,1.377L258.333,37.59z"/>
			<path d="M225.355,19.473c-14.729-0.634-28.907-1.642-42.407-2.986l0.978,6.252c13.337,1.287,27.336,2.266,41.831,2.873
				L225.355,19.473z"/>
			<path d="M226.514,36.922c-14.087-0.531-27.709-1.377-40.771-2.502l0.986,6.226c12.894,1.086,26.323,1.907,40.187,2.424
				L226.514,36.922z"/>
			<path d="M162.578,27.939c-1.168-5.816-2.187-10.863-2.853-14.197c-3.82-0.514-6.41-0.879-6.41-0.879l2.877,14.287
				C158.301,27.417,160.431,27.691,162.578,27.939z"/>
			<path d="M164.715,38.466c3.856,0.438,7.774,0.852,11.749,1.241l-1.036-6.258c-26.027-2.597-49.445-6.344-69.094-10.956
				c-1.652-0.378-3.269-0.771-4.86-1.165l2.175,6.82c14.187,3.387,30.263,6.297,47.859,8.68c2.238,0.299,4.51,0.589,6.793,0.877
				l6.832,33.756c-17.057-1-33.396-2.271-48.906-3.76l2.021,6.341c17.217,1.619,35.422,2.953,54.443,3.977l0,0l0,0
				C172.692,78.018,168.199,55.708,164.715,38.466z"/>
			<path d="M165.885,14.58l2.498,14.029c2.088,0.232,4.196,0.455,6.324,0.668l-2.47-13.936
				C170.098,15.104,167.988,14.841,165.885,14.58z"/>
			<path d="M68.732,111.425l-6.789-0.098l20.734,44.915c-4.598,0.766-9.07,1.557-13.389,2.386
				c-7.288,1.391-14.175,2.858-20.63,4.402l3.212,5.521c10.325-2.413,21.797-4.645,34.257-6.678l0.106-0.021
				c1.774-0.285,3.563-0.566,5.362-0.853L68.732,111.425z"/>
			<path d="M86.017,86.908L86.017,86.908C54.742,84.861,25.84,82.286,0,79.262l3.84,6.606c23.699,2.68,49.846,5.006,77.926,6.894
				l9.014,22.68c0,0,4.642-0.142,6.513-0.189L86.017,86.908z"/>
			<path d="M266.49,98.439c13.027-0.009,25.901-0.117,38.57-0.299l0.647-6.132c-12.89,0.188-25.96,0.287-39.188,0.322L266.49,98.439
				z"/>
			<path d="M434.006,109.328c-0.16-0.002-4.615-0.01-4.775-0.018l-2.316,6.051c0.216,0.017,4.666,0.019,4.883,0.026
				c23.94,0.669,47.214,1.467,69.692,2.39l3.489-5.979C482.088,110.836,458.393,110.018,434.006,109.328z"/>
			<path d="M424.235,93.89l2.348-6.271c-24.557,1.478-50.457,2.633-77.416,3.438l-1.168,6.154
				c19.064-0.555,37.616-1.291,55.555-2.191l-4.408,13.44c-17.397-0.383-35.104-0.7-53.087-0.93l-1.155,6.098
				c17.693,0.232,35.109,0.543,52.259,0.907l-11.32,34.538c-14.908-1.453-30.604-2.66-46.943-3.572l-1.143,6.064
				c17.532,0.977,34.318,2.274,50.158,3.865l2.215,0.225l13.426-40.979c4.282,0.1,8.57,0.2,12.807,0.309l2.267-6.069
				c-4.34-0.109-8.709-0.209-13.095-0.31l4.566-13.929C414.855,94.432,419.574,94.164,424.235,93.89z"/>
			<path d="M259.244,106.978c-2.044,0-4.072,0.003-6.119,0.003l-0.199-14.667c2.043,0,4.081,0.011,6.12,0.019L259.244,106.978z
				 M245.242,92.28c-2.047-0.011-4.075-0.026-6.134-0.045l0.656,14.773c2.043-0.002,4.086-0.002,6.133-0.012L245.242,92.28z"/>
			<path d="M186.403,150.393l-1.406-7.144l-71.521-28.498L103.874,88l-6.639-0.385l24.88,69.313c2.06-0.238,4.157-0.474,6.255-0.697
				l-12.137-33.786L186.403,150.393z"/>
			<path d="M178.629,107.521l-3.285-16.44c-2.113-0.067-4.229-0.129-6.332-0.199l3.364,16.721
				C174.465,107.57,176.54,107.545,178.629,107.521z M162.578,90.678c-2.127-0.08-4.244-0.154-6.353-0.228l4.006,17.33
				c2.08-0.037,4.182-0.065,6.271-0.102L162.578,90.678z"/>
			<path d="M335.978,91.352l-9.202,53.535c-19.769-0.926-40.361-1.438-61.553-1.486l-80.746-33.467l7.26,41.27
				c0,0,4.062-0.141,6.121-0.228l-5.457-31.3l71.636,29.854h0.006c4.441,0.001,8.852,0.036,13.222,0.074l0,0
				c18.679,0.198,36.851,0.754,54.323,1.644l10.822-60.073C340.193,91.233,338.051,91.288,335.978,91.352z"/>
		</g>
	</g>
</g>
</svg>
